<mxfile host="app.diagrams.net" modified="2024-01-14T01:25:21.931Z" agent="Mozilla/5.0 (Macintosh; Intel Mac OS X 10_15_7) AppleWebKit/537.36 (KHTML, like Gecko) Chrome/120.0.0.0 Safari/537.36" etag="DVjeKrS3zbCL-jL_KwEs" version="21.8.1" type="device">
  <diagram id="C5RBs43oDa-KdzZeNtuy" name="Page-1">
    <mxGraphModel dx="977" dy="620" grid="1" gridSize="10" guides="1" tooltips="1" connect="1" arrows="1" fold="1" page="1" pageScale="1" pageWidth="827" pageHeight="1169" math="0" shadow="0">
      <root>
        <mxCell id="WIyWlLk6GJQsqaUBKTNV-0" />
        <mxCell id="WIyWlLk6GJQsqaUBKTNV-1" parent="WIyWlLk6GJQsqaUBKTNV-0" />
        <mxCell id="iyH_EipeMZXM0Fu82atl-0" value="" style="ellipse;whiteSpace=wrap;html=1;" vertex="1" parent="WIyWlLk6GJQsqaUBKTNV-1">
          <mxGeometry x="270" y="90" width="120" height="120" as="geometry" />
        </mxCell>
        <mxCell id="iyH_EipeMZXM0Fu82atl-1" value="&lt;font style=&quot;font-size: 19px;&quot;&gt;System Off&lt;/font&gt;" style="text;html=1;strokeColor=none;fillColor=none;align=center;verticalAlign=middle;whiteSpace=wrap;rounded=0;" vertex="1" parent="WIyWlLk6GJQsqaUBKTNV-1">
          <mxGeometry x="295" y="110" width="70" height="30" as="geometry" />
        </mxCell>
        <mxCell id="iyH_EipeMZXM0Fu82atl-2" value="" style="ellipse;whiteSpace=wrap;html=1;aspect=fixed;fillColor=none;strokeColor=#3399FF;fontColor=#000000;" vertex="1" parent="WIyWlLk6GJQsqaUBKTNV-1">
          <mxGeometry x="280" y="150" width="40" height="40" as="geometry" />
        </mxCell>
        <mxCell id="iyH_EipeMZXM0Fu82atl-3" value="OFF" style="text;html=1;strokeColor=none;fillColor=none;align=center;verticalAlign=middle;whiteSpace=wrap;rounded=0;" vertex="1" parent="WIyWlLk6GJQsqaUBKTNV-1">
          <mxGeometry x="285" y="162.5" width="30" height="15" as="geometry" />
        </mxCell>
        <mxCell id="iyH_EipeMZXM0Fu82atl-4" value="" style="ellipse;whiteSpace=wrap;html=1;aspect=fixed;fillColor=none;strokeColor=#3399FF;" vertex="1" parent="WIyWlLk6GJQsqaUBKTNV-1">
          <mxGeometry x="340" y="150" width="40" height="40" as="geometry" />
        </mxCell>
        <mxCell id="iyH_EipeMZXM0Fu82atl-5" value="OFF" style="text;html=1;align=center;verticalAlign=middle;whiteSpace=wrap;rounded=0;fontColor=#000000;" vertex="1" parent="WIyWlLk6GJQsqaUBKTNV-1">
          <mxGeometry x="345" y="160" width="30" height="20" as="geometry" />
        </mxCell>
        <mxCell id="iyH_EipeMZXM0Fu82atl-6" value="" style="ellipse;whiteSpace=wrap;html=1;" vertex="1" parent="WIyWlLk6GJQsqaUBKTNV-1">
          <mxGeometry x="460" y="230" width="120" height="120" as="geometry" />
        </mxCell>
        <mxCell id="iyH_EipeMZXM0Fu82atl-7" value="&lt;font style=&quot;font-size: 19px;&quot;&gt;Worker mode&lt;/font&gt;" style="text;html=1;strokeColor=none;fillColor=none;align=center;verticalAlign=middle;whiteSpace=wrap;rounded=0;" vertex="1" parent="WIyWlLk6GJQsqaUBKTNV-1">
          <mxGeometry x="485" y="250" width="70" height="30" as="geometry" />
        </mxCell>
        <mxCell id="iyH_EipeMZXM0Fu82atl-8" value="" style="ellipse;whiteSpace=wrap;html=1;aspect=fixed;fillColor=#FF00FF;strokeColor=#3399FF;fontColor=#000000;" vertex="1" parent="WIyWlLk6GJQsqaUBKTNV-1">
          <mxGeometry x="470" y="290" width="40" height="40" as="geometry" />
        </mxCell>
        <mxCell id="iyH_EipeMZXM0Fu82atl-9" value="ON" style="text;html=1;strokeColor=none;fillColor=none;align=center;verticalAlign=middle;whiteSpace=wrap;rounded=0;" vertex="1" parent="WIyWlLk6GJQsqaUBKTNV-1">
          <mxGeometry x="475" y="302.5" width="30" height="15" as="geometry" />
        </mxCell>
        <mxCell id="iyH_EipeMZXM0Fu82atl-10" value="" style="ellipse;whiteSpace=wrap;html=1;aspect=fixed;fillColor=#000000;strokeColor=#3399FF;" vertex="1" parent="WIyWlLk6GJQsqaUBKTNV-1">
          <mxGeometry x="530" y="290" width="40" height="40" as="geometry" />
        </mxCell>
        <mxCell id="iyH_EipeMZXM0Fu82atl-11" value="ON" style="text;html=1;align=center;verticalAlign=middle;whiteSpace=wrap;rounded=0;fontColor=#FFFFFF;" vertex="1" parent="WIyWlLk6GJQsqaUBKTNV-1">
          <mxGeometry x="535" y="300" width="30" height="20" as="geometry" />
        </mxCell>
        <mxCell id="iyH_EipeMZXM0Fu82atl-12" value="" style="endArrow=classic;html=1;rounded=0;fontSize=21;horizontal=1;entryX=0.083;entryY=0.167;entryDx=0;entryDy=0;entryPerimeter=0;fillColor=#66B2FF;fontColor=#007FFF;strokeWidth=2;strokeColor=#0066CC;" edge="1" parent="WIyWlLk6GJQsqaUBKTNV-1" source="iyH_EipeMZXM0Fu82atl-0" target="iyH_EipeMZXM0Fu82atl-6">
          <mxGeometry width="50" height="50" relative="1" as="geometry">
            <mxPoint x="410" y="290" as="sourcePoint" />
            <mxPoint x="450" y="240" as="targetPoint" />
          </mxGeometry>
        </mxCell>
        <mxCell id="iyH_EipeMZXM0Fu82atl-13" value="System button" style="text;html=1;strokeColor=none;fillColor=none;align=center;verticalAlign=middle;whiteSpace=wrap;rounded=0;rotation=35;" vertex="1" parent="WIyWlLk6GJQsqaUBKTNV-1">
          <mxGeometry x="410" y="190" width="60" height="30" as="geometry" />
        </mxCell>
        <mxCell id="iyH_EipeMZXM0Fu82atl-14" value="" style="curved=1;endArrow=classic;html=1;rounded=0;exitX=0.641;exitY=0.004;exitDx=0;exitDy=0;exitPerimeter=0;entryX=1;entryY=0.333;entryDx=0;entryDy=0;entryPerimeter=0;strokeWidth=2;strokeColor=#0066CC;" edge="1" parent="WIyWlLk6GJQsqaUBKTNV-1" source="iyH_EipeMZXM0Fu82atl-6" target="iyH_EipeMZXM0Fu82atl-0">
          <mxGeometry width="50" height="50" relative="1" as="geometry">
            <mxPoint x="490" y="200" as="sourcePoint" />
            <mxPoint x="540" y="150" as="targetPoint" />
            <Array as="points">
              <mxPoint x="540" y="200" />
              <mxPoint x="530" y="170" />
              <mxPoint x="500" y="150" />
            </Array>
          </mxGeometry>
        </mxCell>
        <mxCell id="iyH_EipeMZXM0Fu82atl-15" value="System button" style="text;html=1;strokeColor=none;fillColor=none;align=center;verticalAlign=middle;whiteSpace=wrap;rounded=0;rotation=15;" vertex="1" parent="WIyWlLk6GJQsqaUBKTNV-1">
          <mxGeometry x="440" y="110" width="60" height="30" as="geometry" />
        </mxCell>
        <mxCell id="iyH_EipeMZXM0Fu82atl-25" value="" style="ellipse;whiteSpace=wrap;html=1;" vertex="1" parent="WIyWlLk6GJQsqaUBKTNV-1">
          <mxGeometry x="110" y="317.5" width="120" height="120" as="geometry" />
        </mxCell>
        <mxCell id="iyH_EipeMZXM0Fu82atl-26" value="&lt;font style=&quot;font-size: 19px;&quot;&gt;Plant mode&lt;/font&gt;" style="text;html=1;strokeColor=none;fillColor=none;align=center;verticalAlign=middle;whiteSpace=wrap;rounded=0;" vertex="1" parent="WIyWlLk6GJQsqaUBKTNV-1">
          <mxGeometry x="135" y="337.5" width="70" height="30" as="geometry" />
        </mxCell>
        <mxCell id="iyH_EipeMZXM0Fu82atl-27" value="" style="ellipse;whiteSpace=wrap;html=1;aspect=fixed;fillColor=#FF00FF;strokeColor=#3399FF;fontColor=#000000;" vertex="1" parent="WIyWlLk6GJQsqaUBKTNV-1">
          <mxGeometry x="120" y="377.5" width="40" height="40" as="geometry" />
        </mxCell>
        <mxCell id="iyH_EipeMZXM0Fu82atl-28" value="ON" style="text;html=1;strokeColor=none;fillColor=none;align=center;verticalAlign=middle;whiteSpace=wrap;rounded=0;" vertex="1" parent="WIyWlLk6GJQsqaUBKTNV-1">
          <mxGeometry x="125" y="390" width="30" height="15" as="geometry" />
        </mxCell>
        <mxCell id="iyH_EipeMZXM0Fu82atl-29" value="" style="ellipse;whiteSpace=wrap;html=1;aspect=fixed;fillColor=#FF00FF;strokeColor=#3399FF;fontColor=#000000;" vertex="1" parent="WIyWlLk6GJQsqaUBKTNV-1">
          <mxGeometry x="180" y="377.5" width="40" height="40" as="geometry" />
        </mxCell>
        <mxCell id="iyH_EipeMZXM0Fu82atl-30" value="&lt;font color=&quot;#000000&quot;&gt;ON&lt;/font&gt;" style="text;html=1;align=center;verticalAlign=middle;whiteSpace=wrap;rounded=0;fontColor=#FFFFFF;" vertex="1" parent="WIyWlLk6GJQsqaUBKTNV-1">
          <mxGeometry x="185" y="387.5" width="30" height="20" as="geometry" />
        </mxCell>
        <mxCell id="iyH_EipeMZXM0Fu82atl-31" value="" style="endArrow=classic;html=1;rounded=0;fontSize=21;horizontal=1;entryX=0.398;entryY=0.996;entryDx=0;entryDy=0;entryPerimeter=0;fillColor=#66B2FF;fontColor=#007FFF;strokeWidth=2;strokeColor=#0066CC;exitX=0.674;exitY=-0.014;exitDx=0;exitDy=0;exitPerimeter=0;" edge="1" parent="WIyWlLk6GJQsqaUBKTNV-1" source="iyH_EipeMZXM0Fu82atl-25" target="iyH_EipeMZXM0Fu82atl-0">
          <mxGeometry width="50" height="50" relative="1" as="geometry">
            <mxPoint x="389" y="195" as="sourcePoint" />
            <mxPoint x="480" y="260" as="targetPoint" />
          </mxGeometry>
        </mxCell>
        <mxCell id="iyH_EipeMZXM0Fu82atl-33" value="System button" style="text;html=1;strokeColor=none;fillColor=none;align=center;verticalAlign=middle;whiteSpace=wrap;rounded=0;rotation=-40;" vertex="1" parent="WIyWlLk6GJQsqaUBKTNV-1">
          <mxGeometry x="210" y="230" width="60" height="30" as="geometry" />
        </mxCell>
        <mxCell id="iyH_EipeMZXM0Fu82atl-35" value="" style="endArrow=classic;html=1;rounded=0;fontSize=21;horizontal=1;entryX=-0.003;entryY=0.543;entryDx=0;entryDy=0;entryPerimeter=0;fillColor=#66B2FF;fontColor=#007FFF;strokeWidth=2;strokeColor=#00CC00;exitX=0.919;exitY=0.189;exitDx=0;exitDy=0;exitPerimeter=0;" edge="1" parent="WIyWlLk6GJQsqaUBKTNV-1" source="iyH_EipeMZXM0Fu82atl-25" target="iyH_EipeMZXM0Fu82atl-6">
          <mxGeometry width="50" height="50" relative="1" as="geometry">
            <mxPoint x="236.5" y="356" as="sourcePoint" />
            <mxPoint x="363.5" y="250" as="targetPoint" />
          </mxGeometry>
        </mxCell>
        <mxCell id="iyH_EipeMZXM0Fu82atl-36" value="Worker&amp;nbsp;&lt;br&gt;button" style="text;html=1;strokeColor=none;fillColor=none;align=center;verticalAlign=middle;whiteSpace=wrap;rounded=0;rotation=-10;" vertex="1" parent="WIyWlLk6GJQsqaUBKTNV-1">
          <mxGeometry x="330" y="280" width="60" height="30" as="geometry" />
        </mxCell>
        <mxCell id="iyH_EipeMZXM0Fu82atl-37" value="" style="endArrow=classic;html=1;rounded=0;fontSize=21;horizontal=1;entryX=1;entryY=0.813;entryDx=0;entryDy=0;entryPerimeter=0;fillColor=#66B2FF;fontColor=#007FFF;strokeWidth=2;strokeColor=#00CC00;exitX=0.341;exitY=0.986;exitDx=0;exitDy=0;exitPerimeter=0;" edge="1" parent="WIyWlLk6GJQsqaUBKTNV-1" source="iyH_EipeMZXM0Fu82atl-6" target="iyH_EipeMZXM0Fu82atl-29">
          <mxGeometry width="50" height="50" relative="1" as="geometry">
            <mxPoint x="235" y="382.5" as="sourcePoint" />
            <mxPoint x="475" y="337.5" as="targetPoint" />
          </mxGeometry>
        </mxCell>
        <mxCell id="iyH_EipeMZXM0Fu82atl-38" value="Worker&amp;nbsp;&lt;br&gt;button" style="text;html=1;strokeColor=none;fillColor=none;align=center;verticalAlign=middle;whiteSpace=wrap;rounded=0;rotation=-10;" vertex="1" parent="WIyWlLk6GJQsqaUBKTNV-1">
          <mxGeometry x="330" y="350" width="60" height="30" as="geometry" />
        </mxCell>
      </root>
    </mxGraphModel>
  </diagram>
</mxfile>
